<?xml version="1.0" encoding="UTF-8" standalone="no"?>
<svg
   xmlns:dc="http://purl.org/dc/elements/1.1/"
   xmlns:cc="http://creativecommons.org/ns#"
   xmlns:rdf="http://www.w3.org/1999/02/22-rdf-syntax-ns#"
   xmlns:svg="http://www.w3.org/2000/svg"
   xmlns="http://www.w3.org/2000/svg"
   xmlns:sodipodi="http://sodipodi.sourceforge.net/DTD/sodipodi-0.dtd"
   xmlns:inkscape="http://www.inkscape.org/namespaces/inkscape"
   inkscape:version="1.0 (4035a4fb49, 2020-05-01)"
   inkscape:export-ydpi="132"
   inkscape:export-xdpi="132"
   inkscape:export-filename="C:\Users\Henry\Documents\Studium lokal\6. Semester\SwEng Praktikum\Git\schach\src\main\resources\assets\blackBishop.png"
   sodipodi:docname="blackBishop.svg"
   id="svg14"
   height="45"
   width="45"
   version="1.1">
  <metadata
     id="metadata20">
    <rdf:RDF>
      <cc:Work
         rdf:about="">
        <dc:format>image/svg+xml</dc:format>
        <dc:type
           rdf:resource="http://purl.org/dc/dcmitype/StillImage" />
      </cc:Work>
    </rdf:RDF>
  </metadata>
  <defs
     id="defs18" />
  <sodipodi:namedview
     inkscape:current-layer="svg14"
     inkscape:window-maximized="1"
     inkscape:window-y="-8"
     inkscape:window-x="1912"
     inkscape:cy="22.5"
     inkscape:cx="22.5"
     inkscape:zoom="19.777778"
     showgrid="false"
     id="namedview16"
     inkscape:window-height="1057"
     inkscape:window-width="1920"
     inkscape:pageshadow="2"
     inkscape:pageopacity="0"
     guidetolerance="10"
     gridtolerance="10"
     objecttolerance="10"
     borderopacity="1"
     bordercolor="#666666"
     pagecolor="#ffffff" />
  <g
     id="g12"
     style="opacity:1; fill:none; fill-rule:evenodd; fill-opacity:1; stroke:#000000; stroke-width:1.5; stroke-linecap:round; stroke-linejoin:round; stroke-miterlimit:4; stroke-dasharray:none; stroke-opacity:1;">
    <g
       id="g8"
       style="fill:#000000; stroke:#000000; stroke-linecap:butt;">
      <path
         id="path2"
         d="M 9,36 C 12.39,35.03 19.11,36.43 22.5,34 C 25.89,36.43 32.61,35.03 36,36 C 36,36 37.65,36.54 39,38 C 38.32,38.97 37.35,38.99 36,38.5 C 32.61,37.53 25.89,38.96 22.5,37.5 C 19.11,38.96 12.39,37.53 9,38.5 C 7.646,38.99 6.677,38.97 6,38 C 7.354,36.06 9,36 9,36 z" />
      <path
         id="path4"
         d="M 15,32 C 17.5,34.5 27.5,34.5 30,32 C 30.5,30.5 30,30 30,30 C 30,27.5 27.5,26 27.5,26 C 33,24.5 33.5,14.5 22.5,10.5 C 11.5,14.5 12,24.5 17.5,26 C 17.5,26 15,27.5 15,30 C 15,30 14.5,30.5 15,32 z" />
      <path
         id="path6"
         d="M 25 8 A 2.5 2.5 0 1 1  20,8 A 2.5 2.5 0 1 1  25 8 z" />
    </g>
    <path
       id="path10"
       style="fill:none; stroke:#ffffff; stroke-linejoin:miter;"
       d="M 17.5,26 L 27.5,26 M 15,30 L 30,30 M 22.5,15.5 L 22.5,20.5 M 20,18 L 25,18" />
  </g>
</svg>
