<?xml version="1.0" encoding="UTF-8" standalone="no"?>
<svg
   xmlns:dc="http://purl.org/dc/elements/1.1/"
   xmlns:cc="http://creativecommons.org/ns#"
   xmlns:rdf="http://www.w3.org/1999/02/22-rdf-syntax-ns#"
   xmlns:svg="http://www.w3.org/2000/svg"
   xmlns="http://www.w3.org/2000/svg"
   xmlns:sodipodi="http://sodipodi.sourceforge.net/DTD/sodipodi-0.dtd"
   xmlns:inkscape="http://www.inkscape.org/namespaces/inkscape"
   inkscape:version="1.0 (4035a4fb49, 2020-05-01)"
   inkscape:export-ydpi="132"
   inkscape:export-xdpi="132"
   inkscape:export-filename="C:\Users\Henry\Documents\Studium lokal\6. Semester\SwEng Praktikum\Git\schach\src\main\resources\assets\whiteQueen.png"
   sodipodi:docname="whiteQueen.svg"
   id="svg22"
   height="45"
   width="45"
   version="1.1">
  <metadata
     id="metadata28">
    <rdf:RDF>
      <cc:Work
         rdf:about="">
        <dc:format>image/svg+xml</dc:format>
        <dc:type
           rdf:resource="http://purl.org/dc/dcmitype/StillImage" />
      </cc:Work>
    </rdf:RDF>
  </metadata>
  <defs
     id="defs26" />
  <sodipodi:namedview
     inkscape:current-layer="svg22"
     inkscape:window-maximized="1"
     inkscape:window-y="-8"
     inkscape:window-x="1912"
     inkscape:cy="22.5"
     inkscape:cx="22.5"
     inkscape:zoom="19.777778"
     showgrid="false"
     id="namedview24"
     inkscape:window-height="1057"
     inkscape:window-width="1920"
     inkscape:pageshadow="2"
     inkscape:pageopacity="0"
     guidetolerance="10"
     gridtolerance="10"
     objecttolerance="10"
     borderopacity="1"
     bordercolor="#666666"
     pagecolor="#ffffff" />
  <g
     id="g20"
     style="opacity:1; fill:#ffffff; fill-opacity:1; fill-rule:evenodd; stroke:#000000; stroke-width:1.5; stroke-linecap:round;stroke-linejoin:round;stroke-miterlimit:4; stroke-dasharray:none; stroke-opacity:1;">
    <path
       id="path2"
       transform="translate(-1,-1)"
       d="M 9 13 A 2 2 0 1 1  5,13 A 2 2 0 1 1  9 13 z" />
    <path
       id="path4"
       transform="translate(15.5,-5.5)"
       d="M 9 13 A 2 2 0 1 1  5,13 A 2 2 0 1 1  9 13 z" />
    <path
       id="path6"
       transform="translate(32,-1)"
       d="M 9 13 A 2 2 0 1 1  5,13 A 2 2 0 1 1  9 13 z" />
    <path
       id="path8"
       transform="translate(7,-4.5)"
       d="M 9 13 A 2 2 0 1 1  5,13 A 2 2 0 1 1  9 13 z" />
    <path
       id="path10"
       transform="translate(24,-4)"
       d="M 9 13 A 2 2 0 1 1  5,13 A 2 2 0 1 1  9 13 z" />
    <path
       id="path12"
       style="stroke-linecap:butt;"
       d="M 9,26 C 17.5,24.5 30,24.5 36,26 L 38,14 L 31,25 L 31,11 L 25.5,24.5 L 22.5,9.5 L 19.5,24.5 L 14,10.5 L 14,25 L 7,14 L 9,26 z " />
    <path
       id="path14"
       style="stroke-linecap:butt;"
       d="M 9,26 C 9,28 10.5,28 11.5,30 C 12.5,31.5 12.5,31 12,33.5 C 10.5,34.5 10.5,36 10.5,36 C 9,37.5 11,38.5 11,38.5 C 17.5,39.5 27.5,39.5 34,38.5 C 34,38.5 35.5,37.5 34,36 C 34,36 34.5,34.5 33,33.5 C 32.5,31 32.5,31.5 33.5,30 C 34.5,28 36,28 36,26 C 27.5,24.5 17.5,24.5 9,26 z " />
    <path
       id="path16"
       style="fill:none;"
       d="M 11.5,30 C 15,29 30,29 33.5,30" />
    <path
       id="path18"
       style="fill:none;"
       d="M 12,33.5 C 18,32.5 27,32.5 33,33.5" />
  </g>
</svg>
