<?xml version="1.0" encoding="UTF-8" standalone="no"?><svg xmlns="http://www.w3.org/2000/svg" xmlns:xlink="http://www.w3.org/1999/xlink" contentScriptType="application/ecmascript" contentStyleType="text/css" height="532px" preserveAspectRatio="none" style="width:781px;height:532px;" version="1.1" viewBox="0 0 781 532" width="781px" zoomAndPan="magnify"><defs><filter height="300%" id="f158izqbguge1p" width="300%" x="-1" y="-1"><feGaussianBlur result="blurOut" stdDeviation="2.0"/><feColorMatrix in="blurOut" result="blurOut2" type="matrix" values="0 0 0 0 0 0 0 0 0 0 0 0 0 0 0 0 0 0 .4 0"/><feOffset dx="4.0" dy="4.0" in="blurOut2" result="blurOut3"/><feBlend in="SourceGraphic" in2="blurOut3" mode="normal"/></filter></defs><g><!--MD5=[e05bacf3ff4416a0580578814d41bbf6]
class Piece--><rect fill="#F8F8F8" filter="url(#f158izqbguge1p)" height="131.0156" id="Piece" style="stroke: #383838; stroke-width: 1.5;" width="241" x="216" y="255"/><ellipse cx="316.75" cy="271" fill="#C2C2C2" rx="11" ry="11" style="stroke: #383838; stroke-width: 1.0;"/><path d="M319.5156,266.875 Q319.6719,266.6563 319.8594,266.5469 Q320.0469,266.4375 320.2656,266.4375 Q320.6406,266.4375 320.875,266.7031 Q321.1094,266.9531 321.1094,267.5625 L321.1094,269.0156 Q321.1094,269.625 320.875,269.8906 Q320.6406,270.1563 320.2656,270.1563 Q319.9219,270.1563 319.7188,269.9531 Q319.5156,269.7656 319.4063,269.25 Q319.3594,268.8906 319.1719,268.7031 Q318.8438,268.3281 318.2344,268.1094 Q317.625,267.8906 317,267.8906 Q316.2344,267.8906 315.5938,268.2188 Q314.9688,268.5469 314.4688,269.2969 Q313.9844,270.0469 313.9844,271.0781 L313.9844,272.1719 Q313.9844,273.4063 314.875,274.2344 Q315.7656,275.0469 317.3594,275.0469 Q318.2969,275.0469 318.9531,274.7969 Q319.3438,274.6406 319.7656,274.2031 Q320.0313,273.9375 320.1719,273.8594 Q320.3281,273.7813 320.5313,273.7813 Q320.8594,273.7813 321.1094,274.0469 Q321.375,274.2969 321.375,274.6406 Q321.375,274.9844 321.0313,275.3906 Q320.5313,275.9688 319.7344,276.2969 Q318.6563,276.75 317.3594,276.75 Q315.8438,276.75 314.6406,276.125 Q313.6563,275.625 312.9688,274.5625 Q312.2813,273.4844 312.2813,272.2031 L312.2813,271.0469 Q312.2813,269.7188 312.8906,268.5781 Q313.5156,267.4219 314.6094,266.8125 Q315.7031,266.1875 316.9375,266.1875 Q317.6719,266.1875 318.3125,266.3594 Q318.9688,266.5156 319.5156,266.875 Z "/><text fill="#000000" font-family="sans-serif" font-size="12" lengthAdjust="spacingAndGlyphs" textLength="31" x="337.25" y="275.9102">Piece</text><line style="stroke: #383838; stroke-width: 1.5;" x1="217" x2="456" y1="287" y2="287"/><text fill="#000000" font-family="sans-serif" font-size="11" lengthAdjust="spacingAndGlyphs" textLength="84" x="222" y="302.4189">#position: Square</text><text fill="#000000" font-family="sans-serif" font-size="11" lengthAdjust="spacingAndGlyphs" textLength="85" x="222" y="316.2549">#isWhite: boolean</text><line style="stroke: #383838; stroke-width: 1.5;" x1="217" x2="456" y1="322.6719" y2="322.6719"/><text fill="#000000" font-family="sans-serif" font-size="11" lengthAdjust="spacingAndGlyphs" textLength="229" x="222" y="338.0908">+Piece(position: Square, isWhite: boolean): void</text><text fill="#000000" font-family="sans-serif" font-size="11" lengthAdjust="spacingAndGlyphs" textLength="107" x="222" y="351.9268">+getPosition(): Square</text><text fill="#000000" font-family="sans-serif" font-size="11" lengthAdjust="spacingAndGlyphs" textLength="135" x="222" y="365.7627">+move(target: Square): void</text><text fill="#000000" font-family="sans-serif" font-size="11" font-style="italic" lengthAdjust="spacingAndGlyphs" textLength="71" x="222" y="379.5986">+print(): String</text><!--MD5=[6bd8cd731001ea389c78559e5d225136]
class Rook--><rect fill="#F8F8F8" filter="url(#f158izqbguge1p)" height="61.8359" id="Rook" style="stroke: #383838; stroke-width: 1.5;" width="81" x="6" y="460"/><ellipse cx="30" cy="476" fill="#C2C2C2" rx="11" ry="11" style="stroke: #383838; stroke-width: 1.0;"/><path d="M32.7656,471.875 Q32.9219,471.6563 33.1094,471.5469 Q33.2969,471.4375 33.5156,471.4375 Q33.8906,471.4375 34.125,471.7031 Q34.3594,471.9531 34.3594,472.5625 L34.3594,474.0156 Q34.3594,474.625 34.125,474.8906 Q33.8906,475.1563 33.5156,475.1563 Q33.1719,475.1563 32.9688,474.9531 Q32.7656,474.7656 32.6563,474.25 Q32.6094,473.8906 32.4219,473.7031 Q32.0938,473.3281 31.4844,473.1094 Q30.875,472.8906 30.25,472.8906 Q29.4844,472.8906 28.8438,473.2188 Q28.2188,473.5469 27.7188,474.2969 Q27.2344,475.0469 27.2344,476.0781 L27.2344,477.1719 Q27.2344,478.4063 28.125,479.2344 Q29.0156,480.0469 30.6094,480.0469 Q31.5469,480.0469 32.2031,479.7969 Q32.5938,479.6406 33.0156,479.2031 Q33.2813,478.9375 33.4219,478.8594 Q33.5781,478.7813 33.7813,478.7813 Q34.1094,478.7813 34.3594,479.0469 Q34.625,479.2969 34.625,479.6406 Q34.625,479.9844 34.2813,480.3906 Q33.7813,480.9688 32.9844,481.2969 Q31.9063,481.75 30.6094,481.75 Q29.0938,481.75 27.8906,481.125 Q26.9063,480.625 26.2188,479.5625 Q25.5313,478.4844 25.5313,477.2031 L25.5313,476.0469 Q25.5313,474.7188 26.1406,473.5781 Q26.7656,472.4219 27.8594,471.8125 Q28.9531,471.1875 30.1875,471.1875 Q30.9219,471.1875 31.5625,471.3594 Q32.2188,471.5156 32.7656,471.875 Z "/><text fill="#000000" font-family="sans-serif" font-size="12" lengthAdjust="spacingAndGlyphs" textLength="29" x="46" y="480.9102">Rook</text><line style="stroke: #383838; stroke-width: 1.5;" x1="7" x2="86" y1="492" y2="492"/><line style="stroke: #383838; stroke-width: 1.5;" x1="7" x2="86" y1="500" y2="500"/><text fill="#000000" font-family="sans-serif" font-size="11" lengthAdjust="spacingAndGlyphs" textLength="69" x="12" y="515.4189">+print(): String</text><!--MD5=[54492ef8d1ee43ec36ab1f2cdc586935]
class Peasant--><rect fill="#F8F8F8" filter="url(#f158izqbguge1p)" height="61.8359" id="Peasant" style="stroke: #383838; stroke-width: 1.5;" width="81" x="122" y="460"/><ellipse cx="138.35" cy="476" fill="#C2C2C2" rx="11" ry="11" style="stroke: #383838; stroke-width: 1.0;"/><path d="M141.1156,471.875 Q141.2719,471.6563 141.4594,471.5469 Q141.6469,471.4375 141.8656,471.4375 Q142.2406,471.4375 142.475,471.7031 Q142.7094,471.9531 142.7094,472.5625 L142.7094,474.0156 Q142.7094,474.625 142.475,474.8906 Q142.2406,475.1563 141.8656,475.1563 Q141.5219,475.1563 141.3188,474.9531 Q141.1156,474.7656 141.0063,474.25 Q140.9594,473.8906 140.7719,473.7031 Q140.4438,473.3281 139.8344,473.1094 Q139.225,472.8906 138.6,472.8906 Q137.8344,472.8906 137.1938,473.2188 Q136.5688,473.5469 136.0688,474.2969 Q135.5844,475.0469 135.5844,476.0781 L135.5844,477.1719 Q135.5844,478.4063 136.475,479.2344 Q137.3656,480.0469 138.9594,480.0469 Q139.8969,480.0469 140.5531,479.7969 Q140.9438,479.6406 141.3656,479.2031 Q141.6313,478.9375 141.7719,478.8594 Q141.9281,478.7813 142.1313,478.7813 Q142.4594,478.7813 142.7094,479.0469 Q142.975,479.2969 142.975,479.6406 Q142.975,479.9844 142.6313,480.3906 Q142.1313,480.9688 141.3344,481.2969 Q140.2563,481.75 138.9594,481.75 Q137.4438,481.75 136.2406,481.125 Q135.2563,480.625 134.5688,479.5625 Q133.8813,478.4844 133.8813,477.2031 L133.8813,476.0469 Q133.8813,474.7188 134.4906,473.5781 Q135.1156,472.4219 136.2094,471.8125 Q137.3031,471.1875 138.5375,471.1875 Q139.2719,471.1875 139.9125,471.3594 Q140.5688,471.5156 141.1156,471.875 Z "/><text fill="#000000" font-family="sans-serif" font-size="12" lengthAdjust="spacingAndGlyphs" textLength="46" x="152.65" y="480.9102">Peasant</text><line style="stroke: #383838; stroke-width: 1.5;" x1="123" x2="202" y1="492" y2="492"/><line style="stroke: #383838; stroke-width: 1.5;" x1="123" x2="202" y1="500" y2="500"/><text fill="#000000" font-family="sans-serif" font-size="11" lengthAdjust="spacingAndGlyphs" textLength="69" x="128" y="515.4189">+print(): String</text><!--MD5=[f12c1f668f765232aff110b8f6a6681d]
class Knight--><rect fill="#F8F8F8" filter="url(#f158izqbguge1p)" height="61.8359" id="Knight" style="stroke: #383838; stroke-width: 1.5;" width="81" x="238" y="460"/><ellipse cx="259.3" cy="476" fill="#C2C2C2" rx="11" ry="11" style="stroke: #383838; stroke-width: 1.0;"/><path d="M262.0656,471.875 Q262.2219,471.6563 262.4094,471.5469 Q262.5969,471.4375 262.8156,471.4375 Q263.1906,471.4375 263.425,471.7031 Q263.6594,471.9531 263.6594,472.5625 L263.6594,474.0156 Q263.6594,474.625 263.425,474.8906 Q263.1906,475.1563 262.8156,475.1563 Q262.4719,475.1563 262.2688,474.9531 Q262.0656,474.7656 261.9563,474.25 Q261.9094,473.8906 261.7219,473.7031 Q261.3938,473.3281 260.7844,473.1094 Q260.175,472.8906 259.55,472.8906 Q258.7844,472.8906 258.1438,473.2188 Q257.5188,473.5469 257.0188,474.2969 Q256.5344,475.0469 256.5344,476.0781 L256.5344,477.1719 Q256.5344,478.4063 257.425,479.2344 Q258.3156,480.0469 259.9094,480.0469 Q260.8469,480.0469 261.5031,479.7969 Q261.8938,479.6406 262.3156,479.2031 Q262.5813,478.9375 262.7219,478.8594 Q262.8781,478.7813 263.0813,478.7813 Q263.4094,478.7813 263.6594,479.0469 Q263.925,479.2969 263.925,479.6406 Q263.925,479.9844 263.5813,480.3906 Q263.0813,480.9688 262.2844,481.2969 Q261.2063,481.75 259.9094,481.75 Q258.3938,481.75 257.1906,481.125 Q256.2063,480.625 255.5188,479.5625 Q254.8313,478.4844 254.8313,477.2031 L254.8313,476.0469 Q254.8313,474.7188 255.4406,473.5781 Q256.0656,472.4219 257.1594,471.8125 Q258.2531,471.1875 259.4875,471.1875 Q260.2219,471.1875 260.8625,471.3594 Q261.5188,471.5156 262.0656,471.875 Z "/><text fill="#000000" font-family="sans-serif" font-size="12" lengthAdjust="spacingAndGlyphs" textLength="35" x="274.7" y="480.9102">Knight</text><line style="stroke: #383838; stroke-width: 1.5;" x1="239" x2="318" y1="492" y2="492"/><line style="stroke: #383838; stroke-width: 1.5;" x1="239" x2="318" y1="500" y2="500"/><text fill="#000000" font-family="sans-serif" font-size="11" lengthAdjust="spacingAndGlyphs" textLength="69" x="244" y="515.4189">+print(): String</text><!--MD5=[449cd079d44679d193659f94873ba755]
class Bishop--><rect fill="#F8F8F8" filter="url(#f158izqbguge1p)" height="61.8359" id="Bishop" style="stroke: #383838; stroke-width: 1.5;" width="81" x="354" y="460"/><ellipse cx="373.5" cy="476" fill="#C2C2C2" rx="11" ry="11" style="stroke: #383838; stroke-width: 1.0;"/><path d="M376.2656,471.875 Q376.4219,471.6563 376.6094,471.5469 Q376.7969,471.4375 377.0156,471.4375 Q377.3906,471.4375 377.625,471.7031 Q377.8594,471.9531 377.8594,472.5625 L377.8594,474.0156 Q377.8594,474.625 377.625,474.8906 Q377.3906,475.1563 377.0156,475.1563 Q376.6719,475.1563 376.4688,474.9531 Q376.2656,474.7656 376.1563,474.25 Q376.1094,473.8906 375.9219,473.7031 Q375.5938,473.3281 374.9844,473.1094 Q374.375,472.8906 373.75,472.8906 Q372.9844,472.8906 372.3438,473.2188 Q371.7188,473.5469 371.2188,474.2969 Q370.7344,475.0469 370.7344,476.0781 L370.7344,477.1719 Q370.7344,478.4063 371.625,479.2344 Q372.5156,480.0469 374.1094,480.0469 Q375.0469,480.0469 375.7031,479.7969 Q376.0938,479.6406 376.5156,479.2031 Q376.7813,478.9375 376.9219,478.8594 Q377.0781,478.7813 377.2813,478.7813 Q377.6094,478.7813 377.8594,479.0469 Q378.125,479.2969 378.125,479.6406 Q378.125,479.9844 377.7813,480.3906 Q377.2813,480.9688 376.4844,481.2969 Q375.4063,481.75 374.1094,481.75 Q372.5938,481.75 371.3906,481.125 Q370.4063,480.625 369.7188,479.5625 Q369.0313,478.4844 369.0313,477.2031 L369.0313,476.0469 Q369.0313,474.7188 369.6406,473.5781 Q370.2656,472.4219 371.3594,471.8125 Q372.4531,471.1875 373.6875,471.1875 Q374.4219,471.1875 375.0625,471.3594 Q375.7188,471.5156 376.2656,471.875 Z "/><text fill="#000000" font-family="sans-serif" font-size="12" lengthAdjust="spacingAndGlyphs" textLength="39" x="388.5" y="480.9102">Bishop</text><line style="stroke: #383838; stroke-width: 1.5;" x1="355" x2="434" y1="492" y2="492"/><line style="stroke: #383838; stroke-width: 1.5;" x1="355" x2="434" y1="500" y2="500"/><text fill="#000000" font-family="sans-serif" font-size="11" lengthAdjust="spacingAndGlyphs" textLength="69" x="360" y="515.4189">+print(): String</text><!--MD5=[b5524c1f1cf4f7aeecdc9b5af5b05d87]
class Queen--><rect fill="#F8F8F8" filter="url(#f158izqbguge1p)" height="61.8359" id="Queen" style="stroke: #383838; stroke-width: 1.5;" width="81" x="470" y="460"/><ellipse cx="490.4" cy="476" fill="#C2C2C2" rx="11" ry="11" style="stroke: #383838; stroke-width: 1.0;"/><path d="M493.1656,471.875 Q493.3219,471.6563 493.5094,471.5469 Q493.6969,471.4375 493.9156,471.4375 Q494.2906,471.4375 494.525,471.7031 Q494.7594,471.9531 494.7594,472.5625 L494.7594,474.0156 Q494.7594,474.625 494.525,474.8906 Q494.2906,475.1563 493.9156,475.1563 Q493.5719,475.1563 493.3688,474.9531 Q493.1656,474.7656 493.0563,474.25 Q493.0094,473.8906 492.8219,473.7031 Q492.4938,473.3281 491.8844,473.1094 Q491.275,472.8906 490.65,472.8906 Q489.8844,472.8906 489.2438,473.2188 Q488.6188,473.5469 488.1188,474.2969 Q487.6344,475.0469 487.6344,476.0781 L487.6344,477.1719 Q487.6344,478.4063 488.525,479.2344 Q489.4156,480.0469 491.0094,480.0469 Q491.9469,480.0469 492.6031,479.7969 Q492.9938,479.6406 493.4156,479.2031 Q493.6813,478.9375 493.8219,478.8594 Q493.9781,478.7813 494.1813,478.7813 Q494.5094,478.7813 494.7594,479.0469 Q495.025,479.2969 495.025,479.6406 Q495.025,479.9844 494.6813,480.3906 Q494.1813,480.9688 493.3844,481.2969 Q492.3063,481.75 491.0094,481.75 Q489.4938,481.75 488.2906,481.125 Q487.3063,480.625 486.6188,479.5625 Q485.9313,478.4844 485.9313,477.2031 L485.9313,476.0469 Q485.9313,474.7188 486.5406,473.5781 Q487.1656,472.4219 488.2594,471.8125 Q489.3531,471.1875 490.5875,471.1875 Q491.3219,471.1875 491.9625,471.3594 Q492.6188,471.5156 493.1656,471.875 Z "/><text fill="#000000" font-family="sans-serif" font-size="12" lengthAdjust="spacingAndGlyphs" textLength="37" x="505.6" y="480.9102">Queen</text><line style="stroke: #383838; stroke-width: 1.5;" x1="471" x2="550" y1="492" y2="492"/><line style="stroke: #383838; stroke-width: 1.5;" x1="471" x2="550" y1="500" y2="500"/><text fill="#000000" font-family="sans-serif" font-size="11" lengthAdjust="spacingAndGlyphs" textLength="69" x="476" y="515.4189">+print(): String</text><!--MD5=[76412a1b87b0f1c748604a3142aab9ae]
class King--><rect fill="#F8F8F8" filter="url(#f158izqbguge1p)" height="61.8359" id="King" style="stroke: #383838; stroke-width: 1.5;" width="81" x="586" y="460"/><ellipse cx="611.8" cy="476" fill="#C2C2C2" rx="11" ry="11" style="stroke: #383838; stroke-width: 1.0;"/><path d="M614.5656,471.875 Q614.7219,471.6563 614.9094,471.5469 Q615.0969,471.4375 615.3156,471.4375 Q615.6906,471.4375 615.925,471.7031 Q616.1594,471.9531 616.1594,472.5625 L616.1594,474.0156 Q616.1594,474.625 615.925,474.8906 Q615.6906,475.1563 615.3156,475.1563 Q614.9719,475.1563 614.7688,474.9531 Q614.5656,474.7656 614.4563,474.25 Q614.4094,473.8906 614.2219,473.7031 Q613.8938,473.3281 613.2844,473.1094 Q612.675,472.8906 612.05,472.8906 Q611.2844,472.8906 610.6438,473.2188 Q610.0188,473.5469 609.5188,474.2969 Q609.0344,475.0469 609.0344,476.0781 L609.0344,477.1719 Q609.0344,478.4063 609.925,479.2344 Q610.8156,480.0469 612.4094,480.0469 Q613.3469,480.0469 614.0031,479.7969 Q614.3938,479.6406 614.8156,479.2031 Q615.0813,478.9375 615.2219,478.8594 Q615.3781,478.7813 615.5813,478.7813 Q615.9094,478.7813 616.1594,479.0469 Q616.425,479.2969 616.425,479.6406 Q616.425,479.9844 616.0813,480.3906 Q615.5813,480.9688 614.7844,481.2969 Q613.7063,481.75 612.4094,481.75 Q610.8938,481.75 609.6906,481.125 Q608.7063,480.625 608.0188,479.5625 Q607.3313,478.4844 607.3313,477.2031 L607.3313,476.0469 Q607.3313,474.7188 607.9406,473.5781 Q608.5656,472.4219 609.6594,471.8125 Q610.7531,471.1875 611.9875,471.1875 Q612.7219,471.1875 613.3625,471.3594 Q614.0188,471.5156 614.5656,471.875 Z "/><text fill="#000000" font-family="sans-serif" font-size="12" lengthAdjust="spacingAndGlyphs" textLength="25" x="628.2" y="480.9102">King</text><line style="stroke: #383838; stroke-width: 1.5;" x1="587" x2="666" y1="492" y2="492"/><line style="stroke: #383838; stroke-width: 1.5;" x1="587" x2="666" y1="500" y2="500"/><text fill="#000000" font-family="sans-serif" font-size="11" lengthAdjust="spacingAndGlyphs" textLength="69" x="592" y="515.4189">+print(): String</text><!--MD5=[5655ee3e2a0d028d03fe20f829576392]
class Square--><rect fill="#F8F8F8" filter="url(#f158izqbguge1p)" height="172.5234" id="Square" style="stroke: #383838; stroke-width: 1.5;" width="201" x="281" y="8"/><ellipse cx="357.25" cy="24" fill="#C2C2C2" rx="11" ry="11" style="stroke: #383838; stroke-width: 1.0;"/><path d="M360.0156,19.875 Q360.1719,19.6563 360.3594,19.5469 Q360.5469,19.4375 360.7656,19.4375 Q361.1406,19.4375 361.375,19.7031 Q361.6094,19.9531 361.6094,20.5625 L361.6094,22.0156 Q361.6094,22.625 361.375,22.8906 Q361.1406,23.1563 360.7656,23.1563 Q360.4219,23.1563 360.2188,22.9531 Q360.0156,22.7656 359.9063,22.25 Q359.8594,21.8906 359.6719,21.7031 Q359.3438,21.3281 358.7344,21.1094 Q358.125,20.8906 357.5,20.8906 Q356.7344,20.8906 356.0938,21.2188 Q355.4688,21.5469 354.9688,22.2969 Q354.4844,23.0469 354.4844,24.0781 L354.4844,25.1719 Q354.4844,26.4063 355.375,27.2344 Q356.2656,28.0469 357.8594,28.0469 Q358.7969,28.0469 359.4531,27.7969 Q359.8438,27.6406 360.2656,27.2031 Q360.5313,26.9375 360.6719,26.8594 Q360.8281,26.7813 361.0313,26.7813 Q361.3594,26.7813 361.6094,27.0469 Q361.875,27.2969 361.875,27.6406 Q361.875,27.9844 361.5313,28.3906 Q361.0313,28.9688 360.2344,29.2969 Q359.1563,29.75 357.8594,29.75 Q356.3438,29.75 355.1406,29.125 Q354.1563,28.625 353.4688,27.5625 Q352.7813,26.4844 352.7813,25.2031 L352.7813,24.0469 Q352.7813,22.7188 353.3906,21.5781 Q354.0156,20.4219 355.1094,19.8125 Q356.2031,19.1875 357.4375,19.1875 Q358.1719,19.1875 358.8125,19.3594 Q359.4688,19.5156 360.0156,19.875 Z "/><text fill="#000000" font-family="sans-serif" font-size="12" lengthAdjust="spacingAndGlyphs" textLength="40" x="377.75" y="28.9102">Square</text><line style="stroke: #383838; stroke-width: 1.5;" x1="282" x2="481" y1="40" y2="40"/><text fill="#000000" font-family="sans-serif" font-size="11" lengthAdjust="spacingAndGlyphs" textLength="92" x="287" y="55.4189">-occupied: boolean</text><text fill="#000000" font-family="sans-serif" font-size="11" lengthAdjust="spacingAndGlyphs" textLength="88" x="287" y="69.2549">-denotation: String</text><text fill="#000000" font-family="sans-serif" font-size="11" lengthAdjust="spacingAndGlyphs" textLength="78" x="287" y="83.0908">-occupier: Piece</text><line style="stroke: #383838; stroke-width: 1.5;" x1="282" x2="481" y1="89.5078" y2="89.5078"/><text fill="#000000" font-family="sans-serif" font-size="11" lengthAdjust="spacingAndGlyphs" textLength="166" x="287" y="104.9268">+Square(denotation: Square): void</text><text fill="#000000" font-family="sans-serif" font-size="11" lengthAdjust="spacingAndGlyphs" textLength="189" x="287" y="118.7627">+setOccupied(occupied: boolean): void</text><text fill="#000000" font-family="sans-serif" font-size="11" lengthAdjust="spacingAndGlyphs" textLength="112" x="287" y="132.5986">+isOccupied(): boolean</text><text fill="#000000" font-family="sans-serif" font-size="11" lengthAdjust="spacingAndGlyphs" textLength="114" x="287" y="146.4346">+getDenotation(): String</text><text fill="#000000" font-family="sans-serif" font-size="11" lengthAdjust="spacingAndGlyphs" textLength="173" x="287" y="160.2705">+setOccupier(occupier: Piece): void</text><text fill="#000000" font-family="sans-serif" font-size="11" lengthAdjust="spacingAndGlyphs" textLength="105" x="287" y="174.1064">+getOccupier(): Piece</text><!--MD5=[9563755d011c5cec7ec66dc53565a59e]
class Board--><rect fill="#F8F8F8" filter="url(#f158izqbguge1p)" height="158.6875" id="Board" style="stroke: #383838; stroke-width: 1.5;" width="278" x="492.5" y="241"/><ellipse cx="610.75" cy="257" fill="#C2C2C2" rx="11" ry="11" style="stroke: #383838; stroke-width: 1.0;"/><path d="M613.5156,252.875 Q613.6719,252.6563 613.8594,252.5469 Q614.0469,252.4375 614.2656,252.4375 Q614.6406,252.4375 614.875,252.7031 Q615.1094,252.9531 615.1094,253.5625 L615.1094,255.0156 Q615.1094,255.625 614.875,255.8906 Q614.6406,256.1563 614.2656,256.1563 Q613.9219,256.1563 613.7188,255.9531 Q613.5156,255.7656 613.4063,255.25 Q613.3594,254.8906 613.1719,254.7031 Q612.8438,254.3281 612.2344,254.1094 Q611.625,253.8906 611,253.8906 Q610.2344,253.8906 609.5938,254.2188 Q608.9688,254.5469 608.4688,255.2969 Q607.9844,256.0469 607.9844,257.0781 L607.9844,258.1719 Q607.9844,259.4063 608.875,260.2344 Q609.7656,261.0469 611.3594,261.0469 Q612.2969,261.0469 612.9531,260.7969 Q613.3438,260.6406 613.7656,260.2031 Q614.0313,259.9375 614.1719,259.8594 Q614.3281,259.7813 614.5313,259.7813 Q614.8594,259.7813 615.1094,260.0469 Q615.375,260.2969 615.375,260.6406 Q615.375,260.9844 615.0313,261.3906 Q614.5313,261.9688 613.7344,262.2969 Q612.6563,262.75 611.3594,262.75 Q609.8438,262.75 608.6406,262.125 Q607.6563,261.625 606.9688,260.5625 Q606.2813,259.4844 606.2813,258.2031 L606.2813,257.0469 Q606.2813,255.7188 606.8906,254.5781 Q607.5156,253.4219 608.6094,252.8125 Q609.7031,252.1875 610.9375,252.1875 Q611.6719,252.1875 612.3125,252.3594 Q612.9688,252.5156 613.5156,252.875 Z "/><text fill="#000000" font-family="sans-serif" font-size="12" lengthAdjust="spacingAndGlyphs" textLength="33" x="631.25" y="261.9102">Board</text><line style="stroke: #383838; stroke-width: 1.5;" x1="493.5" x2="769.5" y1="273" y2="273"/><text fill="#000000" font-family="sans-serif" font-size="11" lengthAdjust="spacingAndGlyphs" textLength="120" x="498.5" y="288.4189">-squareMatrix: Square[][]</text><line style="stroke: #383838; stroke-width: 1.5;" x1="493.5" x2="769.5" y1="294.8359" y2="294.8359"/><text fill="#000000" font-family="sans-serif" font-size="11" lengthAdjust="spacingAndGlyphs" textLength="69" x="498.5" y="310.2549">+Board(): void</text><text fill="#000000" font-family="sans-serif" font-size="11" lengthAdjust="spacingAndGlyphs" textLength="80" x="498.5" y="324.0908">-initMatrix(): void</text><text fill="#000000" font-family="sans-serif" font-size="11" lengthAdjust="spacingAndGlyphs" textLength="163" x="498.5" y="337.9268">-resolveIntToChar(i: Integer): char</text><text fill="#000000" font-family="sans-serif" font-size="11" lengthAdjust="spacingAndGlyphs" textLength="84" x="498.5" y="351.7627">-initLineUp(): void</text><text fill="#000000" font-family="sans-serif" font-size="11" lengthAdjust="spacingAndGlyphs" textLength="90" x="498.5" y="365.5986">+printBoard(): void</text><text fill="#000000" font-family="sans-serif" font-size="11" lengthAdjust="spacingAndGlyphs" textLength="189" x="498.5" y="379.4346">+getSquare(denotation: String): Square</text><text fill="#000000" font-family="sans-serif" font-size="11" lengthAdjust="spacingAndGlyphs" textLength="266" x="498.5" y="393.2705">+movePiece(startingPos: String, targetPos: String): void</text><!--MD5=[3cab58e622330109321580dbb0b85605]
class Input--><rect fill="#F8F8F8" filter="url(#f158izqbguge1p)" height="172.5234" id="Input" style="stroke: #383838; stroke-width: 1.5;" width="138" x="562.5" y="8"/><ellipse cx="613.75" cy="24" fill="#C2C2C2" rx="11" ry="11" style="stroke: #383838; stroke-width: 1.0;"/><path d="M616.5156,19.875 Q616.6719,19.6563 616.8594,19.5469 Q617.0469,19.4375 617.2656,19.4375 Q617.6406,19.4375 617.875,19.7031 Q618.1094,19.9531 618.1094,20.5625 L618.1094,22.0156 Q618.1094,22.625 617.875,22.8906 Q617.6406,23.1563 617.2656,23.1563 Q616.9219,23.1563 616.7188,22.9531 Q616.5156,22.7656 616.4063,22.25 Q616.3594,21.8906 616.1719,21.7031 Q615.8438,21.3281 615.2344,21.1094 Q614.625,20.8906 614,20.8906 Q613.2344,20.8906 612.5938,21.2188 Q611.9688,21.5469 611.4688,22.2969 Q610.9844,23.0469 610.9844,24.0781 L610.9844,25.1719 Q610.9844,26.4063 611.875,27.2344 Q612.7656,28.0469 614.3594,28.0469 Q615.2969,28.0469 615.9531,27.7969 Q616.3438,27.6406 616.7656,27.2031 Q617.0313,26.9375 617.1719,26.8594 Q617.3281,26.7813 617.5313,26.7813 Q617.8594,26.7813 618.1094,27.0469 Q618.375,27.2969 618.375,27.6406 Q618.375,27.9844 618.0313,28.3906 Q617.5313,28.9688 616.7344,29.2969 Q615.6563,29.75 614.3594,29.75 Q612.8438,29.75 611.6406,29.125 Q610.6563,28.625 609.9688,27.5625 Q609.2813,26.4844 609.2813,25.2031 L609.2813,24.0469 Q609.2813,22.7188 609.8906,21.5781 Q610.5156,20.4219 611.6094,19.8125 Q612.7031,19.1875 613.9375,19.1875 Q614.6719,19.1875 615.3125,19.3594 Q615.9688,19.5156 616.5156,19.875 Z "/><text fill="#000000" font-family="sans-serif" font-size="12" lengthAdjust="spacingAndGlyphs" textLength="27" x="634.25" y="28.9102">Input</text><line style="stroke: #383838; stroke-width: 1.5;" x1="563.5" x2="699.5" y1="40" y2="40"/><text fill="#000000" font-family="sans-serif" font-size="11" lengthAdjust="spacingAndGlyphs" textLength="116" x="568.5" y="55.4189">-currentInputLine: String</text><text fill="#000000" font-family="sans-serif" font-size="11" lengthAdjust="spacingAndGlyphs" textLength="92" x="568.5" y="69.2549">-startingPos: String</text><text fill="#000000" font-family="sans-serif" font-size="11" lengthAdjust="spacingAndGlyphs" textLength="84" x="568.5" y="83.0908">-targetPos: String</text><text fill="#000000" font-family="sans-serif" font-size="11" lengthAdjust="spacingAndGlyphs" textLength="70" x="568.5" y="96.9268">-valid: boolean</text><text fill="#000000" font-family="sans-serif" font-size="11" lengthAdjust="spacingAndGlyphs" textLength="67" x="568.5" y="110.7627">-board: Board</text><line style="stroke: #383838; stroke-width: 1.5;" x1="563.5" x2="699.5" y1="117.1797" y2="117.1797"/><text fill="#000000" font-family="sans-serif" font-size="11" lengthAdjust="spacingAndGlyphs" textLength="126" x="568.5" y="132.5986">+Input(board: Board): void</text><text fill="#000000" font-family="sans-serif" font-size="11" lengthAdjust="spacingAndGlyphs" textLength="101" x="568.5" y="146.4346">+inOutRoutine(): void</text><text fill="#000000" font-family="sans-serif" font-size="11" lengthAdjust="spacingAndGlyphs" textLength="83" x="568.5" y="160.2705">-readInput(): void</text><text fill="#000000" font-family="sans-serif" font-size="11" lengthAdjust="spacingAndGlyphs" textLength="75" x="568.5" y="174.1064">-validate(): void</text><!--MD5=[f53f76128b7cb19fbe5b16196be11b90]
reverse link Piece to Peasant--><path d="M255.17,400.259 C233.397,421.344 211.148,442.8899 193.909,459.5835 " fill="none" id="Piece&lt;-Peasant" style="stroke: #383838; stroke-width: 1.0;"/><polygon fill="none" points="250.488,395.049,269.725,386.165,260.227,405.106,250.488,395.049" style="stroke: #383838; stroke-width: 1.0;"/><!--MD5=[f155965888366d3428fedfbd66dbdc67]
reverse link Piece to Rook--><path d="M207.723,396.324 C164.268,421.573 118.845,447.9651 87.3295,466.2767 " fill="none" id="Piece&lt;-Rook" style="stroke: #383838; stroke-width: 1.0;"/><polygon fill="none" points="204.398,390.16,225.208,386.165,211.432,402.265,204.398,390.16" style="stroke: #383838; stroke-width: 1.0;"/><!--MD5=[0bba69bd4d15d8b23c124755577550ff]
reverse link Piece to Knight--><path d="M307.721,405.107 C301.007,424.6147 294.276,444.1679 288.97,459.5835 " fill="none" id="Piece&lt;-Knight" style="stroke: #383838; stroke-width: 1.0;"/><polygon fill="none" points="301.113,402.797,314.242,386.165,314.351,407.354,301.113,402.797" style="stroke: #383838; stroke-width: 1.0;"/><!--MD5=[3a653eda681fe0f42514424c6a5b352b]
reverse link Piece to Bishop--><path d="M365.279,405.107 C371.993,424.6147 378.724,444.1679 384.03,459.5835 " fill="none" id="Piece&lt;-Bishop" style="stroke: #383838; stroke-width: 1.0;"/><polygon fill="none" points="358.649,407.354,358.758,386.165,371.887,402.797,358.649,407.354" style="stroke: #383838; stroke-width: 1.0;"/><!--MD5=[88f2e2291555f21143e81e756510c9ea]
reverse link Piece to Queen--><path d="M417.83,400.259 C439.603,421.344 461.852,442.8899 479.091,459.5835 " fill="none" id="Piece&lt;-Queen" style="stroke: #383838; stroke-width: 1.0;"/><polygon fill="none" points="412.773,405.106,403.275,386.165,422.512,395.049,412.773,405.106" style="stroke: #383838; stroke-width: 1.0;"/><!--MD5=[9fa21af85290b4f921ebc4dd17726164]
reverse link Piece to King--><path d="M465.277,396.324 C508.732,421.573 554.155,447.9651 585.671,466.2767 " fill="none" id="Piece&lt;-King" style="stroke: #383838; stroke-width: 1.0;"/><polygon fill="none" points="461.568,402.265,447.792,386.165,468.602,390.16,461.568,402.265" style="stroke: #383838; stroke-width: 1.0;"/><!--MD5=[f6467046f93aba88bed66e3f7374a456]
link Square to Piece--><path d="M364.295,181.144 C359.382,205.598 354.112,231.83 349.496,254.807 " fill="none" id="Square-Piece" style="stroke: #383838; stroke-width: 1.0;"/><text fill="#000000" font-family="sans-serif" font-size="13" lengthAdjust="spacingAndGlyphs" textLength="7" x="355.7098" y="201.917">1</text><text fill="#000000" font-family="sans-serif" font-size="13" lengthAdjust="spacingAndGlyphs" textLength="22" x="327.7143" y="244.2603">0..1</text><!--MD5=[307ea00ae462dcc1098c331cde370e69]
reverse link Square to Board--><path d="M480.95,184.607 C501.714,203.212 523.462,222.698 543.765,240.89 " fill="none" id="Square&lt;-Board" style="stroke: #383838; stroke-width: 1.0;"/><polygon fill="#383838" points="477.084,181.144,481.1174,190.1291,480.8078,184.4807,486.4561,184.171,477.084,181.144" style="stroke: #383838; stroke-width: 1.0;"/><text fill="#000000" font-family="sans-serif" font-size="13" lengthAdjust="spacingAndGlyphs" textLength="14" x="469.8662" y="201.917">64</text><!--MD5=[2befa160b17bd593194abb451401bc44]
link Input to Board--><path d="M631.5,181.144 C631.5,199.094 631.5,218.001 631.5,235.877 " fill="none" id="Input-&gt;Board" style="stroke: #383838; stroke-width: 1.0;"/><polygon fill="#383838" points="631.5,240.89,635.5,231.89,631.5,235.89,627.5,231.89,631.5,240.89" style="stroke: #383838; stroke-width: 1.0;"/><!--MD5=[963377d59b85305f21ac14592e288e76]
@startuml

skinparam Monochrome true
skinparam classAttributeIconSize 0

class Piece{
    # position: Square
    # isWhite: boolean
    {method} +Piece(position: Square, isWhite: boolean): void
    +getPosition(): Square
    {method} +move(target: Square): void
    {abstract} +print(): String
}

class Rook{
    +print(): String
}

class Peasant{
    +print(): String
}

class Knight{
    +print(): String
}

class Bishop{
    +print(): String
}

class Queen{
    +print(): String
}

class King{
    +print(): String
}

class Square{
    -occupied: boolean
    -denotation: String
    -occupier: Piece
    {method} +Square(denotation: Square): void
    {method} +setOccupied(occupied: boolean): void
    +isOccupied(): boolean
    +getDenotation(): String
    {method} +setOccupier(occupier: Piece): void
    +getOccupier(): Piece
}

class Board{
    {field}-squareMatrix: Square[][]
    +Board(): void
    -initMatrix(): void
    {method} -resolveIntToChar(i: Integer): char
    -initLineUp(): void
    +printBoard(): void
    {method} +getSquare(denotation: String): Square
    {method} +movePiece(startingPos: String, targetPos: String): void
}

class Input{
    -currentInputLine: String
    -startingPos: String
    -targetPos: String
    -valid: boolean
    -board: Board
    {method} +Input(board: Board): void
    +inOutRoutine(): void
    -readInput(): void
    -validate(): void
}

Piece <|- - Peasant
Piece <|- - Rook
Piece <|- - Knight
Piece <|- - Bishop
Piece <|- - Queen
Piece <|- - King

Square "1" - - "0..1" Piece
Square "64" <- - Board
Input - -> Board


@enduml

PlantUML version 1.2020.06(Sun Apr 05 14:38:32 CEST 2020)
(GPL source distribution)
Java Runtime: Java(TM) SE Runtime Environment
JVM: Java HotSpot(TM) 64-Bit Server VM
Java Version: 11.0.6+8-LTS
Operating System: Windows 10
Default Encoding: Cp1252
Language: de
Country: DE
--></g></svg>